# xmcd CD database file
#
# Track frame offsets:
#	150
#	20207
#	30675
#	42705
#	60285
#	71982
#	85690
#	98727
#	115952
#	128257
#	138222
#	149512
#	160360
#	179920
#	194807
#	206387
#	216197
#	227647
#	245860
#	255940
#	265542
#	274295
#	289257
#	300170
#	312022
#	322822
#	338475
#	349017
#
# Disc length: 4800 seconds
#
# Revision: 0
# Processed by: cddbd v1.4PL0 Copyright (c) Steve Scherf et al.
# Submitted via: CDex 1.50Beta7
#
DISCID=a112be1c
DTITLE=Georgie Fame - Cafe Apres-Midi
DYEAR=1900
DGENRE=Jazz
TTITLE0=Night Train
TTITLE1=Money
TTITLE2=Eso Beso
TTITLE3=Dr. Kitch
TTITLE4=Madness
TTITLE5=Humpty Dumpty
TTITLE6=Black Head Chinaman
TTITLE7=Pink Champagne
TTITLE8=Yeh Yeh
TTITLE9=Do Re Mi
TTITLE10=Sweet Thing
TTITLE11=Point Of No Return
TTITLE12=Moody's Mood For Love (aka. I'm In The Mood For Love)
TTITLE13=Sitting In The Park
TTITLE14=Sunny
TTITLE15=Green Onions
TTITLE16=In The Meantime
TTITLE17=Last Night
TTITLE18=Like We Used To Be
TTITLE19=Dawn Yawn
TTITLE20=Preach and Teach
TTITLE21=Daylight
TTITLE22=Bernie's Tune
TTITLE23=Ali Shuffle - Round 2
TTITLE24=Hot Stuff
TTITLE25=Sweet Perfection
TTITLE26=Lily
TTITLE27=Yes Honesty
EXTD=
EXTT0=
EXTT1=
EXTT2=
EXTT3=
EXTT4=
EXTT5=
EXTT6=
EXTT7=
EXTT8=
EXTT9=
EXTT10=
EXTT11=
EXTT12=
EXTT13=
EXTT14=
EXTT15=
EXTT16=
EXTT17=
EXTT18=
EXTT19=
EXTT20=
EXTT21=
EXTT22=
EXTT23=
EXTT24=
EXTT25=
EXTT26=
EXTT27=
PLAYORDER=
